<?xml version="1.0" ?><svg id="Layer_1" style="enable-background:new 0 0 512 512;" version="1.1" viewBox="0 0 512 512" xml:space="preserve" xmlns="http://www.w3.org/2000/svg" xmlns:xlink="http://www.w3.org/1999/xlink"><path d="M496.6,58c0-28.7-23.3-52-52-52C423.4,6,405,18.8,397,37.2c-20.3-7.3-43.5-6.9-70.1,1.2  c-31.6,9.6-64.1,28.7-92.7,45.6c-32.9,19.4-64.1,37.8-84.3,35.6c-60-6.4-127.3,87.5-131.5,93.4c-4.7,5.8-3.8,14.9,2.9,28  c5.6,11,15.2,24.7,28.5,40.7c18.3,22,42.3,46.8,69.9,72.2c-17.3,23.5-13.6,56.8,9,75.8c10.2,8.6,22.7,13.1,35.9,13.1  c1.6,0,3.2-0.1,4.9-0.2c13.7-1.2,26.1-7.2,35.5-17c29.8,22.8,58.3,42.2,83.1,56.5c18,10.4,33.1,17.5,44.9,21.1  c6.1,1.9,11.2,2.8,15.5,2.8c5.6,0,9.7-1.6,12.5-4.8c5.1-5.1,86.2-87.5,69.6-145.5c-5.6-19.6,7.2-53.4,20.7-89.1  c11.7-31.1,25-66.3,29.1-99.1c3.1-25.6,0.3-47.2-8.6-65.2C486.6,93.2,496.6,76.7,496.6,58z M168.5,432.8  c-12.3,1.1-24.2-2.7-33.6-10.7c-18.4-15.5-21.6-42.4-8-61.7c11.1,10,22.6,20.1,34.5,30.2c11.9,10,23.9,19.7,35.6,28.9  C189.4,427.2,179.4,431.9,168.5,432.8z M442,263.1c-14.7,39-27.4,72.6-20.9,95.3v0c15.2,53.1-66.4,135.2-67.2,136l-0.3,0.3  c-2.7,3.2-18.9,2.9-60.7-21.2c-36.2-20.8-80.6-52.9-125.1-90.4c-44.5-37.5-83.8-75.8-110.5-107.9c-30.9-37.1-33.9-53-31.2-56.2  l0.3-0.3c0.6-0.9,63.6-89.7,117.5-89.7c1.7,0,3.4,0.1,5,0.3c23.5,2.5,54.4-15.7,90.3-36.9C297,58.2,362.6,19.6,413.9,57.2l32.9,27.7  C492.7,129.1,465.8,200.3,442,263.1z M423.4,52.4c2.5-9.4,11.1-16.4,21.3-16.4c12.1,0,22,9.9,22,22c0,8.9-5.3,16.5-12.9,20  c-0.1-0.1-0.2-0.2-0.2-0.2L423.4,52.4z M466.8,93.8c-1.9-2.9-3.9-5.7-6.2-8.4c9.4-5.5,15.8-15.7,15.8-27.4  c0-17.5-14.3-31.8-31.8-31.8c-13.4,0-24.8,8.3-29.5,20c-3-1.9-6-3.6-9.1-5.2c6.5-14.8,21.4-25.2,38.6-25.2  c23.2,0,42.2,18.9,42.2,42.2C486.8,73.1,478.8,86.3,466.8,93.8z" id="XMLID_785_"/></svg>